<svg xmlns="http://www.w3.org/2000/svg" viewBox="0 0 1600 2400" fill="none">

  <!-- Coordinate grid — primary -->
  <g stroke="#E8E2D4" stroke-width="0.4" opacity="0.3">
    <line x1="0" y1="100" x2="1600" y2="100"/>
    <line x1="0" y1="200" x2="1600" y2="200"/>
    <line x1="0" y1="300" x2="1600" y2="300"/>
    <line x1="0" y1="400" x2="1600" y2="400"/>
    <line x1="0" y1="500" x2="1600" y2="500"/>
    <line x1="0" y1="600" x2="1600" y2="600"/>
    <line x1="0" y1="700" x2="1600" y2="700"/>
    <line x1="0" y1="800" x2="1600" y2="800"/>
    <line x1="0" y1="900" x2="1600" y2="900"/>
    <line x1="0" y1="1000" x2="1600" y2="1000"/>
    <line x1="0" y1="1100" x2="1600" y2="1100"/>
    <line x1="0" y1="1200" x2="1600" y2="1200"/>
    <line x1="0" y1="1300" x2="1600" y2="1300"/>
    <line x1="0" y1="1400" x2="1600" y2="1400"/>
    <line x1="0" y1="1500" x2="1600" y2="1500"/>
    <line x1="0" y1="1600" x2="1600" y2="1600"/>
    <line x1="0" y1="1700" x2="1600" y2="1700"/>
    <line x1="0" y1="1800" x2="1600" y2="1800"/>
    <line x1="0" y1="1900" x2="1600" y2="1900"/>
    <line x1="0" y1="2000" x2="1600" y2="2000"/>
    <line x1="0" y1="2100" x2="1600" y2="2100"/>
    <line x1="0" y1="2200" x2="1600" y2="2200"/>
    <line x1="0" y1="2300" x2="1600" y2="2300"/>
    <line x1="100" y1="0" x2="100" y2="2400"/>
    <line x1="200" y1="0" x2="200" y2="2400"/>
    <line x1="300" y1="0" x2="300" y2="2400"/>
    <line x1="400" y1="0" x2="400" y2="2400"/>
    <line x1="500" y1="0" x2="500" y2="2400"/>
    <line x1="600" y1="0" x2="600" y2="2400"/>
    <line x1="700" y1="0" x2="700" y2="2400"/>
    <line x1="800" y1="0" x2="800" y2="2400"/>
    <line x1="900" y1="0" x2="900" y2="2400"/>
    <line x1="1000" y1="0" x2="1000" y2="2400"/>
    <line x1="1100" y1="0" x2="1100" y2="2400"/>
    <line x1="1200" y1="0" x2="1200" y2="2400"/>
    <line x1="1300" y1="0" x2="1300" y2="2400"/>
    <line x1="1400" y1="0" x2="1400" y2="2400"/>
    <line x1="1500" y1="0" x2="1500" y2="2400"/>
  </g>

  <!-- Sub-grid (finer) -->
  <g stroke="#E8E2D4" stroke-width="0.2" opacity="0.12">
    <line x1="0" y1="50" x2="1600" y2="50"/>
    <line x1="0" y1="150" x2="1600" y2="150"/>
    <line x1="0" y1="250" x2="1600" y2="250"/>
    <line x1="0" y1="350" x2="1600" y2="350"/>
    <line x1="0" y1="450" x2="1600" y2="450"/>
    <line x1="0" y1="550" x2="1600" y2="550"/>
    <line x1="0" y1="650" x2="1600" y2="650"/>
    <line x1="0" y1="750" x2="1600" y2="750"/>
    <line x1="0" y1="850" x2="1600" y2="850"/>
    <line x1="0" y1="950" x2="1600" y2="950"/>
    <line x1="0" y1="1050" x2="1600" y2="1050"/>
    <line x1="0" y1="1150" x2="1600" y2="1150"/>
    <line x1="0" y1="1250" x2="1600" y2="1250"/>
    <line x1="0" y1="1350" x2="1600" y2="1350"/>
    <line x1="0" y1="1450" x2="1600" y2="1450"/>
    <line x1="0" y1="1550" x2="1600" y2="1550"/>
    <line x1="0" y1="1650" x2="1600" y2="1650"/>
    <line x1="0" y1="1750" x2="1600" y2="1750"/>
    <line x1="0" y1="1850" x2="1600" y2="1850"/>
    <line x1="0" y1="1950" x2="1600" y2="1950"/>
    <line x1="0" y1="2050" x2="1600" y2="2050"/>
    <line x1="0" y1="2150" x2="1600" y2="2150"/>
    <line x1="0" y1="2250" x2="1600" y2="2250"/>
    <line x1="0" y1="2350" x2="1600" y2="2350"/>
    <line x1="50" y1="0" x2="50" y2="2400"/>
    <line x1="150" y1="0" x2="150" y2="2400"/>
    <line x1="250" y1="0" x2="250" y2="2400"/>
    <line x1="350" y1="0" x2="350" y2="2400"/>
    <line x1="450" y1="0" x2="450" y2="2400"/>
    <line x1="550" y1="0" x2="550" y2="2400"/>
    <line x1="650" y1="0" x2="650" y2="2400"/>
    <line x1="750" y1="0" x2="750" y2="2400"/>
    <line x1="850" y1="0" x2="850" y2="2400"/>
    <line x1="950" y1="0" x2="950" y2="2400"/>
    <line x1="1050" y1="0" x2="1050" y2="2400"/>
    <line x1="1150" y1="0" x2="1150" y2="2400"/>
    <line x1="1250" y1="0" x2="1250" y2="2400"/>
    <line x1="1350" y1="0" x2="1350" y2="2400"/>
    <line x1="1450" y1="0" x2="1450" y2="2400"/>
    <line x1="1550" y1="0" x2="1550" y2="2400"/>
  </g>

  <!-- Coordinate degree labels along edges -->
  <g fill="#E8E2D4" font-family="monospace" font-size="9" opacity="0.5">
    <text x="8" y="98">54°N</text>
    <text x="8" y="298">52°N</text>
    <text x="8" y="498">50°N</text>
    <text x="8" y="698">48°N</text>
    <text x="8" y="898">46°N</text>
    <text x="8" y="1098">44°N</text>
    <text x="8" y="1298">42°N</text>
    <text x="8" y="1498">40°N</text>
    <text x="8" y="1698">38°N</text>
    <text x="8" y="1898">36°N</text>
    <text x="8" y="2098">34°N</text>
    <text x="8" y="2298">32°N</text>
    <text x="98" y="15">5°E</text>
    <text x="298" y="15">10°E</text>
    <text x="498" y="15">15°E</text>
    <text x="698" y="15">20°E</text>
    <text x="898" y="15">25°E</text>
    <text x="1098" y="15">30°E</text>
    <text x="1298" y="15">35°E</text>
    <text x="1498" y="15">40°E</text>
  </g>

  <!-- Coastlines — organic, irregular, map-like -->
  <g stroke="#E8E2D4" stroke-width="1.2" fill="none" opacity="0.5">
    <!-- Scandinavia / North Sea coast -->
    <path d="M0,80 C50,75 80,90 120,70 C160,50 200,80 250,60 C290,45 330,70 360,55 C400,40 420,65 460,50 C480,40 500,55 530,45 L530,0"/>
    <!-- Baltic coast -->
    <path d="M530,45 C550,60 540,90 560,110 C580,130 570,160 590,180 C610,200 600,240 620,260 C640,280 630,310 650,330 C665,345 680,340 700,360 C720,380 710,400 730,410 C760,425 780,415 810,430 C840,445 860,435 890,450 C920,460 950,455 980,470 C1010,480 1030,475 1060,490"/>
    <!-- Continued east Baltic -->
    <path d="M1060,490 C1080,500 1100,495 1130,510 C1160,525 1190,515 1220,530 C1260,550 1300,540 1340,560 C1380,575 1420,565 1460,580 L1600,580"/>

    <!-- Atlantic / Western European coast -->
    <path d="M0,80 C20,120 10,160 30,200 C50,240 35,280 50,320 C65,360 45,400 60,440 C80,480 55,520 70,560 C90,600 65,640 80,680 C100,720 75,760 95,800 C115,840 90,880 110,920"/>
    <!-- Iberian / Mediterranean approach -->
    <path d="M110,920 C130,950 120,990 140,1020 C160,1050 145,1090 165,1120 C185,1150 170,1190 190,1220 C210,1250 195,1290 220,1320 C245,1345 240,1370 270,1390 C300,1410 310,1400 350,1420 C390,1440 420,1430 460,1450 C500,1465 530,1455 570,1470"/>
    <!-- Mediterranean coast continues -->
    <path d="M570,1470 C610,1485 640,1475 680,1490 C720,1505 760,1495 800,1510 C840,1520 880,1515 920,1530 C960,1540 1000,1535 1040,1550 C1080,1560 1120,1555 1160,1570 C1200,1580 1240,1575 1280,1590 C1320,1600 1360,1595 1400,1610 C1440,1620 1480,1615 1520,1630 L1600,1650"/>

    <!-- Italian peninsula -->
    <path d="M460,1100 C470,1140 480,1180 475,1220 C470,1260 485,1300 480,1340 C475,1380 490,1420 500,1450"/>
    <path d="M500,1450 C510,1470 520,1465 530,1480 C545,1500 540,1510 555,1520"/>

    <!-- Greek/Balkan coast -->
    <path d="M920,1100 C940,1140 930,1180 950,1220 C970,1260 960,1300 980,1340 C995,1370 985,1400 1000,1430 C1010,1450 1020,1445 1030,1460"/>
    <path d="M1030,1460 C1020,1480 1040,1500 1030,1520 C1020,1540 1040,1555 1050,1570"/>
  </g>

  <!-- Country borders — dashed, heavier -->
  <g stroke="#E8E2D4" stroke-width="0.9" fill="none" opacity="0.4" stroke-dasharray="8,5">
    <!-- France/Germany border area -->
    <path d="M200,400 C230,420 250,450 280,470 C310,490 330,520 360,540 C380,555 395,575 410,600"/>
    <!-- Germany/Poland border -->
    <path d="M620,260 C625,300 630,340 625,380 C620,420 630,460 625,500 C620,540 630,580 625,620 C620,660 628,700 625,740"/>
    <!-- Inner German border -->
    <path d="M500,260 C505,300 498,340 503,380 C508,420 500,460 505,500 C510,540 502,580 507,620"/>
    <!-- Czech/Austrian border -->
    <path d="M410,600 C450,610 490,620 530,615 C570,610 610,620 650,615 C690,610 730,625 770,620 C810,615 850,630 890,625"/>
    <!-- Poland eastern border -->
    <path d="M1060,200 C1065,260 1055,320 1062,380 C1068,440 1058,500 1065,560 C1072,620 1060,680 1068,740 C1075,800 1063,860 1070,920"/>
  </g>

  <!-- Iron Curtain — prominent amber dashed border -->
  <g stroke="#D4A574" stroke-width="2" stroke-dasharray="12,6" fill="none" opacity="0.5">
    <path d="M620,0 C625,40 618,80 622,120 C626,160 615,200 620,260 C625,320 618,380 622,440 C626,500 618,560 625,620 C630,680 620,740 628,800 C635,860 622,920 630,980 C638,1040 625,1100 632,1160 C638,1220 625,1280 630,1340 C635,1400 628,1460 632,1520 C636,1580 625,1640 630,1700"/>
  </g>

  <!-- Rivers -->
  <g stroke="#8ab4d4" stroke-width="1" fill="none" opacity="0.3">
    <!-- Rhine -->
    <path d="M350,200 C360,260 345,320 355,380 C365,440 350,500 360,560 C370,620 355,680 365,740 C375,800 360,860 370,920 C380,980 365,1040 375,1100"/>
    <!-- Elbe -->
    <path d="M520,120 C530,180 518,240 525,300 C532,360 520,420 528,480 C535,540 522,600 530,660"/>
    <!-- Danube -->
    <path d="M380,700 C430,720 480,710 530,730 C580,750 630,740 680,760 C730,780 780,770 830,790 C880,810 930,800 980,820 C1030,840 1080,830 1130,850 C1180,870 1230,860 1280,880"/>
    <!-- Vistula -->
    <path d="M850,200 C860,260 848,320 855,380 C862,440 850,500 858,560 C865,620 852,680 860,740"/>
    <!-- Oder -->
    <path d="M630,180 C640,240 628,300 635,360 C642,420 630,480 638,540 C645,600 632,660 640,720"/>
    <!-- Dnieper (further east) -->
    <path d="M1300,100 C1310,180 1295,260 1305,340 C1315,420 1300,500 1310,580 C1320,660 1305,740 1315,820 C1325,900 1310,980 1320,1060"/>
  </g>

  <!-- Road/rail networks — dashed connector lines between cities -->
  <g stroke="#E8E2D4" stroke-width="0.5" fill="none" opacity="0.25" stroke-dasharray="3,4">
    <path d="M290,500 L430,480 L530,400 L650,380"/>
    <path d="M650,380 L800,420 L920,500"/>
    <path d="M530,400 L560,320 L580,260"/>
    <path d="M650,380 L700,500 L750,620"/>
    <path d="M430,480 L450,580 L480,700"/>
    <path d="M920,500 L1000,550 L1100,520"/>
    <path d="M800,420 L850,350 L900,280"/>
    <path d="M750,620 L800,740 L830,860"/>
    <path d="M480,700 L530,820 L570,940"/>
    <path d="M1100,520 L1200,600 L1300,650"/>
    <path d="M830,860 L880,980 L920,1080"/>
    <path d="M570,940 L620,1060 L660,1180"/>
    <path d="M920,1080 L970,1180 L1020,1300"/>
  </g>

  <!-- Major cities — circle + crosshair -->
  <g stroke="#D4A574" fill="#D4A574" opacity="0.5">
    <!-- Berlin -->
    <circle cx="565" cy="330" r="4" fill="none" stroke-width="1.2"/>
    <line x1="558" y1="330" x2="572" y2="330" stroke-width="0.6"/>
    <line x1="565" y1="323" x2="565" y2="337" stroke-width="0.6"/>
    <!-- Warsaw -->
    <circle cx="880" cy="310" r="4" fill="none" stroke-width="1.2"/>
    <line x1="873" y1="310" x2="887" y2="310" stroke-width="0.6"/>
    <line x1="880" y1="303" x2="880" y2="317" stroke-width="0.6"/>
    <!-- Prague -->
    <circle cx="530" cy="480" r="4" fill="none" stroke-width="1.2"/>
    <line x1="523" y1="480" x2="537" y2="480" stroke-width="0.6"/>
    <line x1="530" y1="473" x2="530" y2="487" stroke-width="0.6"/>
    <!-- Vienna -->
    <circle cx="650" cy="580" r="4" fill="none" stroke-width="1.2"/>
    <line x1="643" y1="580" x2="657" y2="580" stroke-width="0.6"/>
    <line x1="650" y1="573" x2="650" y2="587" stroke-width="0.6"/>
    <!-- Budapest -->
    <circle cx="800" cy="680" r="4" fill="none" stroke-width="1.2"/>
    <line x1="793" y1="680" x2="807" y2="680" stroke-width="0.6"/>
    <line x1="800" y1="673" x2="800" y2="687" stroke-width="0.6"/>
    <!-- Munich -->
    <circle cx="430" cy="600" r="4" fill="none" stroke-width="1.2"/>
    <line x1="423" y1="600" x2="437" y2="600" stroke-width="0.6"/>
    <line x1="430" y1="593" x2="430" y2="607" stroke-width="0.6"/>
    <!-- Paris -->
    <circle cx="200" cy="500" r="4" fill="none" stroke-width="1.2"/>
    <line x1="193" y1="500" x2="207" y2="500" stroke-width="0.6"/>
    <line x1="200" y1="493" x2="200" y2="507" stroke-width="0.6"/>
    <!-- Moscow (far east) -->
    <circle cx="1450" cy="250" r="5" fill="none" stroke-width="1.5"/>
    <line x1="1441" y1="250" x2="1459" y2="250" stroke-width="0.8"/>
    <line x1="1450" y1="241" x2="1450" y2="259" stroke-width="0.8"/>
    <!-- Kiev -->
    <circle cx="1250" cy="520" r="4" fill="none" stroke-width="1.2"/>
    <line x1="1243" y1="520" x2="1257" y2="520" stroke-width="0.6"/>
    <line x1="1250" y1="513" x2="1250" y2="527" stroke-width="0.6"/>
  </g>

  <!-- Minor cities — small dots -->
  <g fill="#E8E2D4" opacity="0.3">
    <circle cx="290" cy="500" r="2"/>
    <circle cx="370" cy="380" r="2"/>
    <circle cx="700" cy="500" r="2"/>
    <circle cx="480" cy="340" r="2"/>
    <circle cx="750" cy="620" r="2"/>
    <circle cx="600" cy="700" r="2"/>
    <circle cx="950" cy="450" r="2"/>
    <circle cx="1100" cy="380" r="2"/>
    <circle cx="350" cy="720" r="2"/>
    <circle cx="820" cy="550" r="2"/>
    <circle cx="1000" cy="650" r="2"/>
    <circle cx="680" cy="850" r="2"/>
    <circle cx="500" cy="900" r="2"/>
    <circle cx="1150" cy="750" r="2"/>
    <circle cx="400" cy="1050" r="2"/>
    <circle cx="750" cy="1000" r="2"/>
    <circle cx="1050" cy="900" r="2"/>
    <circle cx="600" cy="1200" r="2"/>
    <circle cx="900" cy="1100" r="2"/>
    <circle cx="1300" cy="400" r="2"/>
    <circle cx="1400" cy="550" r="2"/>
    <circle cx="300" cy="1300" r="2"/>
    <circle cx="850" cy="1250" r="2"/>
    <circle cx="1100" cy="1100" r="2"/>
  </g>

  <!-- Terrain contour lines — organic, irregular -->
  <g stroke="#E8E2D4" stroke-width="0.6" fill="none" opacity="0.2">
    <!-- Alpine region -->
    <path d="M300,680 C350,660 380,690 430,670 C480,650 510,680 560,660 C610,640 640,670 690,650 C740,635 770,660 810,645"/>
    <path d="M320,710 C370,690 400,720 450,700 C500,680 530,710 580,690 C630,670 660,700 710,680 C760,665 790,690 830,675"/>
    <path d="M340,740 C390,720 420,750 470,730 C520,710 550,740 600,720 C650,700 680,730 730,710"/>
    <path d="M360,770 C400,755 430,775 470,760 C510,745 540,770 580,755 C620,740 650,760 690,745"/>
    <!-- Carpathian region -->
    <path d="M850,600 C900,580 930,610 980,590 C1030,570 1060,600 1110,580 C1160,560 1190,590 1240,570"/>
    <path d="M870,640 C920,620 950,650 1000,630 C1050,610 1080,640 1130,620 C1180,600 1210,630 1260,610"/>
    <path d="M890,680 C930,665 960,690 1000,675 C1040,660 1070,685 1110,670 C1150,655 1180,680 1220,665"/>
    <!-- Scandinavian highlands -->
    <path d="M300,100 C340,80 370,110 410,90 C450,70 480,100 520,80"/>
    <path d="M280,140 C320,120 350,150 390,130 C430,110 460,140 500,120"/>
    <!-- Ural approach -->
    <path d="M1450,100 C1460,180 1470,260 1465,340 C1460,420 1475,500 1470,580 C1465,660 1480,740 1475,820"/>
    <path d="M1480,100 C1490,180 1500,260 1495,340 C1490,420 1505,500 1500,580 C1495,660 1510,740 1505,820"/>
  </g>

  <!-- Terrain hatching — mountain slopes -->
  <g stroke="#E8E2D4" stroke-width="0.3" opacity="0.15">
    <!-- Alpine hatches -->
    <line x1="380" y1="690" x2="385" y2="705"/>
    <line x1="420" y1="680" x2="425" y2="695"/>
    <line x1="460" y1="670" x2="465" y2="685"/>
    <line x1="500" y1="680" x2="505" y2="695"/>
    <line x1="540" y1="670" x2="545" y2="685"/>
    <line x1="580" y1="660" x2="585" y2="675"/>
    <line x1="620" y1="670" x2="625" y2="685"/>
    <line x1="660" y1="660" x2="665" y2="675"/>
    <line x1="700" y1="650" x2="705" y2="665"/>
    <line x1="740" y1="660" x2="745" y2="675"/>
    <!-- Carpathian hatches -->
    <line x1="900" y1="600" x2="905" y2="615"/>
    <line x1="940" y1="590" x2="945" y2="605"/>
    <line x1="980" y1="600" x2="985" y2="615"/>
    <line x1="1020" y1="590" x2="1025" y2="605"/>
    <line x1="1060" y1="600" x2="1065" y2="615"/>
    <line x1="1100" y1="590" x2="1105" y2="605"/>
    <line x1="1140" y1="580" x2="1145" y2="595"/>
    <line x1="1180" y1="590" x2="1185" y2="605"/>
  </g>

  <!-- Cyrillic labels — cream colored -->
  <g fill="#E8E2D4" font-family="serif" opacity="0.5">
    <!-- Classification stamps -->
    <text x="50" y="42" font-size="15" letter-spacing="4" font-weight="bold">СЕКРЕТНО</text>
    <text x="1280" y="38" font-size="12">КАРТА № 47-Б / СЕРИЯ К</text>
    <text x="1280" y="56" font-size="10">ГЕНЕРАЛЬНЫЙ ШТАБ ВС СССР</text>

    <!-- City labels -->
    <text x="580" y="322" font-size="10">БЕРЛИН</text>
    <text x="895" y="305" font-size="10">ВАРШАВА</text>
    <text x="545" y="475" font-size="10">ПРАГА</text>
    <text x="665" y="575" font-size="10">ВЕНА</text>
    <text x="815" y="675" font-size="10">БУДАПЕШТ</text>
    <text x="445" y="596" font-size="9">МЮНХЕН</text>
    <text x="215" y="496" font-size="10">ПАРИЖ</text>
    <text x="1465" y="244" font-size="11">МОСКВА</text>
    <text x="1265" y="515" font-size="10">КИЕВ</text>

    <!-- Region labels (large, spread) -->
    <text x="250" y="440" font-size="18" letter-spacing="8" opacity="0.35">ЗАПАДНАЯ ЕВРОПА</text>
    <text x="900" y="400" font-size="16" letter-spacing="6" opacity="0.3">ВОСТОЧНЫЙ БЛОК</text>
    <text x="1250" y="300" font-size="14" letter-spacing="5" opacity="0.3">СССР</text>

    <!-- Military zone labels -->
    <text x="460" y="360" font-size="8" letter-spacing="2" opacity="0.35">ГРУППА СОВЕТСКИХ ВОЙСК</text>
    <text x="460" y="375" font-size="8" letter-spacing="2" opacity="0.35">В ГЕРМАНИИ (ГСВГ)</text>

    <!-- Water body labels -->
    <text x="700" y="160" font-size="9" letter-spacing="3" opacity="0.3" font-style="italic">БАЛТИЙСКОЕ МОРЕ</text>
    <text x="500" y="1500" font-size="10" letter-spacing="4" opacity="0.3" font-style="italic">СРЕДИЗЕМНОЕ МОРЕ</text>

    <!-- Bottom stamps -->
    <text x="50" y="2340" font-size="11">МАСШТАБ 1:500 000</text>
    <text x="50" y="2360" font-size="9">СЕЧЕНИЕ РЕЛЬЕФА ЧЕРЕЗ 20 МЕТРОВ</text>
    <text x="50" y="2380" font-size="9">ПРОЕКЦИЯ ГАУССА-КРЮГЕРА</text>
    <text x="1300" y="2350" font-size="10">СОСТАВЛЕНО В 1985 г.</text>
    <text x="1300" y="2370" font-size="10">ОТПЕЧАТАНО ВТУ ГШ · 1987 г.</text>

    <!-- Scattered annotations -->
    <text x="350" y="650" font-size="7" opacity="0.3">выс. 847</text>
    <text x="700" y="760" font-size="7" opacity="0.3">выс. 1203</text>
    <text x="1100" y="650" font-size="7" opacity="0.3">выс. 962</text>
    <text x="420" y="830" font-size="7" opacity="0.3" font-style="italic">р. Дунай</text>
    <text x="320" y="280" font-size="7" opacity="0.3" font-style="italic">р. Рейн</text>
    <text x="630" y="260" font-size="7" opacity="0.3" font-style="italic">р. Одер</text>
    <text x="850" y="260" font-size="7" opacity="0.3" font-style="italic">р. Висла</text>

    <!-- Lower region labels -->
    <text x="650" y="1150" font-size="14" letter-spacing="5" opacity="0.3">БАЛКАНЫ</text>
    <text x="200" y="1150" font-size="12" letter-spacing="4" opacity="0.25">ИТАЛИЯ</text>
    <text x="1050" y="800" font-size="10" letter-spacing="3" opacity="0.25">РУМЫНИЯ</text>
  </g>

  <!-- Compass rose -->
  <g transform="translate(1480, 2250)" stroke="#E8E2D4" fill="#E8E2D4" opacity="0.4">
    <line x1="0" y1="-35" x2="0" y2="35" stroke-width="0.8"/>
    <line x1="-35" y1="0" x2="35" y2="0" stroke-width="0.8"/>
    <line x1="-22" y1="-22" x2="22" y2="22" stroke-width="0.4"/>
    <line x1="22" y1="-22" x2="-22" y2="22" stroke-width="0.4"/>
    <polygon points="0,-35 -5,-22 5,-22"/>
    <text x="-3" y="-42" font-size="11" font-family="serif">С</text>
    <text x="40" y="4" font-size="9" font-family="serif">В</text>
    <text x="-48" y="4" font-size="9" font-family="serif">З</text>
    <text x="-3" y="52" font-size="9" font-family="serif">Ю</text>
    <circle cx="0" cy="0" r="28" stroke-width="0.5" fill="none"/>
    <circle cx="0" cy="0" r="4" stroke-width="0" fill="#E8E2D4"/>
  </g>

  <!-- Scale bar -->
  <g transform="translate(200, 2300)" stroke="#E8E2D4" fill="#E8E2D4" opacity="0.4">
    <line x1="0" y1="0" x2="250" y2="0" stroke-width="1"/>
    <line x1="0" y1="-5" x2="0" y2="5" stroke-width="1"/>
    <line x1="62.5" y1="-3" x2="62.5" y2="3" stroke-width="0.5"/>
    <line x1="125" y1="-5" x2="125" y2="5" stroke-width="1"/>
    <line x1="187.5" y1="-3" x2="187.5" y2="3" stroke-width="0.5"/>
    <line x1="250" y1="-5" x2="250" y2="5" stroke-width="1"/>
    <rect x="0" y="-2" width="62.5" height="4" fill="#E8E2D4" opacity="0.3"/>
    <rect x="125" y="-2" width="62.5" height="4" fill="#E8E2D4" opacity="0.3"/>
    <text x="-5" y="16" font-size="8" font-family="monospace">0</text>
    <text x="118" y="16" font-size="8" font-family="monospace">50</text>
    <text x="235" y="16" font-size="8" font-family="monospace">100 км</text>
  </g>

  <!-- Chernobyl — radiation hazard zone (north of Kiev) -->
  <g transform="translate(1200, 400)">
    <!-- Fallout radius rings — faint dashed circles -->
    <circle cx="0" cy="0" r="65" stroke="#D4A574" stroke-width="0.6" fill="none" stroke-dasharray="4,4" opacity="0.18"/>
    <circle cx="0" cy="0" r="110" stroke="#D4A574" stroke-width="0.4" fill="none" stroke-dasharray="3,5" opacity="0.12"/>
    <circle cx="0" cy="0" r="160" stroke="#D4A574" stroke-width="0.3" fill="none" stroke-dasharray="2,6" opacity="0.07"/>

    <!-- Radiation trefoil symbol -->
    <g fill="#D4A574" opacity="0.55">
      <path d="M-1.5,-2.6 A3,3 0 0,1 1.5,-2.6 L5,-8.66 A10,10 0 0,0 -5,-8.66 Z"/>
      <path d="M3,0 A3,3 0 0,1 1.5,2.6 L5,8.66 A10,10 0 0,0 10,0 Z"/>
      <path d="M-1.5,2.6 A3,3 0 0,1 -3,0 L-10,0 A10,10 0 0,0 -5,8.66 Z"/>
      <circle cx="0" cy="0" r="2"/>
    </g>

    <!-- Labels -->
    <text x="15" y="-3" font-size="9" fill="#D4A574" font-family="serif" letter-spacing="1" opacity="0.55">ЧЕРНОБЫЛЬ</text>
    <text x="15" y="10" font-size="7" fill="#D4A574" font-family="monospace" opacity="0.35">26.IV.1986</text>
  </g>

  <!-- Nuclear missile silo installations -->

  <!-- Silo 1 — Pervomaysk area, southern Ukraine (SS-24 ICBMs) -->
  <g transform="translate(1140, 720)" opacity="0.4">
    <rect x="-4.5" y="-4.5" width="9" height="9" transform="rotate(45)" fill="none" stroke="#D4A574" stroke-width="1"/>
    <circle cx="0" cy="0" r="1.5" fill="#D4A574"/>
    <line x1="0" y1="-9" x2="0" y2="9" stroke="#D4A574" stroke-width="0.4"/>
    <line x1="-9" y1="0" x2="9" y2="0" stroke="#D4A574" stroke-width="0.4"/>
    <text x="13" y="2" font-size="7" fill="#D4A574" font-family="serif" letter-spacing="0.5">РАКЕТНАЯ БАЗА</text>
    <text x="13" y="12" font-size="6" fill="#D4A574" font-family="monospace" opacity="0.7">РБ-14 · СС-24</text>
  </g>

  <!-- Silo 2 — Belarus region (SS-25 mobile launchers) -->
  <g transform="translate(1050, 240)" opacity="0.4">
    <rect x="-4.5" y="-4.5" width="9" height="9" transform="rotate(45)" fill="none" stroke="#D4A574" stroke-width="1"/>
    <circle cx="0" cy="0" r="1.5" fill="#D4A574"/>
    <line x1="0" y1="-9" x2="0" y2="9" stroke="#D4A574" stroke-width="0.4"/>
    <line x1="-9" y1="0" x2="9" y2="0" stroke="#D4A574" stroke-width="0.4"/>
    <text x="13" y="2" font-size="7" fill="#D4A574" font-family="serif" letter-spacing="0.5">РАКЕТНАЯ БАЗА</text>
    <text x="13" y="12" font-size="6" fill="#D4A574" font-family="monospace" opacity="0.7">РБ-7 · СС-25</text>
  </g>

  <!-- Silo 3 — Western Russia, between Moscow and Kiev (SS-19 ICBMs) -->
  <g transform="translate(1380, 400)" opacity="0.4">
    <rect x="-4.5" y="-4.5" width="9" height="9" transform="rotate(45)" fill="none" stroke="#D4A574" stroke-width="1"/>
    <circle cx="0" cy="0" r="1.5" fill="#D4A574"/>
    <line x1="0" y1="-9" x2="0" y2="9" stroke="#D4A574" stroke-width="0.4"/>
    <line x1="-9" y1="0" x2="9" y2="0" stroke="#D4A574" stroke-width="0.4"/>
    <text x="-78" y="-10" font-size="7" fill="#D4A574" font-family="serif" letter-spacing="0.5">РАКЕТНАЯ БАЗА</text>
    <text x="-68" y="0" font-size="6" fill="#D4A574" font-family="monospace" opacity="0.7">РБ-31 · СС-19</text>
  </g>
</svg>
